<?xml version="1.0" encoding="UTF-8"?>
<svg xmlns="http://www.w3.org/2000/svg" viewBox="0 0 200 200" width="200" height="200">
  <!-- Red diamond border -->
  <polygon points="100,5 195,100 100,195 5,100" fill="white" stroke="#FF1100" stroke-width="7"/>
  <!-- Flame Over Circle (Oxidizer) -->
  <g fill="#000000">
    <!-- Circle at bottom -->
    <circle cx="100" cy="135" r="25" fill="#000000"/>
    <!-- Flame on top of circle -->
    <path d="
      M 100,40
      C 82,60 68,78 68,95
      C 68,108 75,118 85,123
      C 78,115 78,105 83,95
      C 86,105 90,115 95,120
      C 92,108 90,98 95,88
      C 98,98 102,110 105,120
      C 110,115 114,105 117,95
      C 122,105 122,115 115,123
      C 125,118 132,108 132,95
      C 132,78 118,60 100,40
      Z
    " fill="#000000"/>
  </g>
</svg>
