<?xml version="1.0" encoding="UTF-8"?>
<svg xmlns="http://www.w3.org/2000/svg" viewBox="0 0 200 200" width="200" height="200">
  <!-- Red diamond border -->
  <polygon points="100,5 195,100 100,195 5,100" fill="white" stroke="#FF1100" stroke-width="7"/>
  <!-- Flame -->
  <path d="
    M 100,35
    C 100,35 75,65 75,90
    C 75,95 78,105 85,108
    C 82,100 85,88 95,80
    C 90,95 88,105 92,112
    C 95,100 100,90 105,80
    C 103,95 108,108 108,115
    C 115,108 120,100 122,90
    C 125,100 127,110 120,120
    C 130,115 138,105 138,90
    C 138,65 115,45 100,35
    Z
  " fill="#000000"/>
  <!-- Larger outer flame for better visibility -->
  <path d="
    M 100,30
    C 80,55 60,75 60,100
    C 60,125 72,145 88,155
    C 78,145 75,130 80,118
    C 83,128 88,140 95,148
    C 90,135 88,125 92,115
    C 96,125 100,138 105,148
    C 112,140 117,128 120,118
    C 125,130 122,145 112,155
    C 128,145 140,125 140,100
    C 140,75 120,55 100,30
    Z
  " fill="#000000"/>
</svg>
